<svg xmlns="http://www.w3.org/2000/svg" width="20" height="20" viewBox="0 0 20 20">
    <path d="M1.913 20a1.905 1.905 0 0 1-1.357-.461 1.928 1.928 0 0 1 0-2.709L16.783.518a1.9 1.9 0 0 1 2.7.09 1.928 1.928 0 0 1 .089 2.522L3.251 19.536A1.905 1.905 0 0 1 1.913 20z" style="fill:#b49f8f"/>
    <path data-name="Path" d="M17.951 19.99a1.9 1.9 0 0 1-1.332-.556L.458 3.163A1.926 1.926 0 0 1 .665.461a1.894 1.894 0 0 1 2.476 0L19.4 16.732a1.926 1.926 0 0 1 .089 2.709q-.043.046-.089.089a1.9 1.9 0 0 1-1.447.46z" style="fill:#b49f8f"/>
</svg>
