<svg xmlns="http://www.w3.org/2000/svg" width="17.15" height="15.988" viewBox="0 0 17.15 15.988">
    <path d="M10.29 15.988a1.659 1.659 0 0 1-1.715-1.6H.858a.8.8 0 1 1 0-1.6h7.717a1.659 1.659 0 0 1 1.715-1.6h1.715a1.66 1.66 0 0 1 1.715 1.6h2.572a.8.8 0 1 1 0 1.6H13.72a1.66 1.66 0 0 1-1.715 1.6zm-5.144-5.6a1.66 1.66 0 0 1-1.715-1.6H.858a.8.8 0 1 1 0-1.6H3.43A1.66 1.66 0 0 1 5.145 5.6H6.86a1.66 1.66 0 0 1 1.715 1.6h7.717a.8.8 0 1 1 0 1.6H8.575a1.66 1.66 0 0 1-1.715 1.6zm6.86-5.6A1.66 1.66 0 0 1 10.29 3.2H.858A.83.83 0 0 1 0 2.4a.831.831 0 0 1 .858-.8h9.432A1.66 1.66 0 0 1 12.005 0h1.715a1.659 1.659 0 0 1 1.715 1.6h.858a.831.831 0 0 1 .858.8.83.83 0 0 1-.858.8h-.858a1.659 1.659 0 0 1-1.715 1.6z" style="fill:#d6d6d6"/>
</svg>
