<svg xmlns="http://www.w3.org/2000/svg" width="50" height="50" viewBox="0 0 50 50">
    <g data-name="Group 30" transform="translate(-42 -111)">
        <circle data-name="Oval Copy 2" cx="25" cy="25" r="25" transform="translate(42 111)" style="fill:#997d64;opacity:.268"/>
        <g data-name="Group 28" style="opacity:.22">
            <path d="M30.465 4.066 7.546.028a1.876 1.876 0 0 0-2.154 1.5L3.915 9.895H1.806A1.8 1.8 0 0 0 0 11.679v12.537A1.8 1.8 0 0 0 1.806 26h23.378a1.8 1.8 0 0 0 1.806-1.784v-4.408a2.668 2.668 0 0 0 1.935-.109 1.88 1.88 0 0 0 .891-1.275L31.972 6.21a1.854 1.854 0 0 0-1.507-2.143z" transform="translate(51 123)" style="stroke-width:.4px;stroke:#4d321e;stroke-miterlimit:10;fill:#4d321e"/>
            <path data-name="Path" d="M.357.686a.836.836 0 0 1 .956-.674L24.232 4.05a.832.832 0 0 1 .671.964l-.356 2.016L0 2.706z" transform="translate(57.052 124.02)" style="fill:#dfd6ce;stroke-width:.4px;stroke:#4d321e;stroke-miterlimit:10"/>
            <path data-name="Path" d="M24.926 13.3a.77.77 0 0 1-.774.765H.774A.77.77 0 0 1 0 13.3V.765A.77.77 0 0 1 .774 0h23.378a.77.77 0 0 1 .774.765z" transform="translate(52.032 133.915)" style="fill:#dfd6ce;stroke-width:.4px;stroke:#4d321e;stroke-miterlimit:10"/>
            <path data-name="Path" d="M23.836 13.518c-.161.907-1.18.634-1.809.523V6.949a1.8 1.8 0 0 0-1.806-1.784H0L.911 0l1.5.263 23.048 4.062z" transform="translate(55.963 127.73)" style="fill:#dfd6ce;stroke-width:.4px;stroke:#4d321e;stroke-miterlimit:10"/>
            <path data-name="Path" d="M3.484 1H.516A.508.508 0 0 1 0 .5.508.508 0 0 1 .516 0h2.968A.508.508 0 0 1 4 .5a.508.508 0 0 1-.516.5z" transform="translate(60 145)" style="stroke-width:.4px;stroke:#4d321e;stroke-miterlimit:10;fill:#4d321e"/>
            <path data-name="Path" d="M3.484 1H.516A.508.508 0 0 1 0 .5.508.508 0 0 1 .516 0h2.968A.508.508 0 0 1 4 .5a.508.508 0 0 1-.516.5z" transform="translate(54 145)" style="stroke-width:.4px;stroke:#4d321e;stroke-miterlimit:10;fill:#4d321e"/>
            <path data-name="Path" d="M3.484 1H.516A.508.508 0 0 1 0 .5.508.508 0 0 1 .516 0h2.968A.508.508 0 0 1 4 .5a.508.508 0 0 1-.516.5z" transform="translate(65 145)" style="stroke-width:.4px;stroke:#4d321e;stroke-miterlimit:10;fill:#4d321e"/>
            <path data-name="Path" d="M3.484 1H.516A.508.508 0 0 1 0 .5.508.508 0 0 1 .516 0h2.968A.508.508 0 0 1 4 .5a.508.508 0 0 1-.516.5z" transform="translate(71 145)" style="stroke-width:.4px;stroke:#4d321e;stroke-miterlimit:10;fill:#4d321e"/>
            <path d="M1.225 4A1.25 1.25 0 0 1 0 2.73V1.27A1.25 1.25 0 0 1 1.225 0h3.55A1.25 1.25 0 0 1 6 1.27v1.46A1.25 1.25 0 0 1 4.774 4z" transform="translate(54 139)" style="fill:#dfd6ce;stroke:#4d321e;stroke-miterlimit:10"/>
        </g>
    </g>
</svg>
