<svg xmlns="http://www.w3.org/2000/svg" width="46" height="18" viewBox="0 0 46 18">
    <g data-name="Group 9">
        <path d="M42.167 2.244A3.044 3.044 0 0 0 42.93 0a3.35 3.35 0 0 0-2.179 1.071 2.856 2.856 0 0 0-.783 2.156 2.8 2.8 0 0 0 2.2-.984"/>
        <path data-name="Path" d="M42.92 3.378c-1.214-.064-2.246.659-2.826.659s-1.468-.62-2.428-.603a3.61 3.61 0 0 0-3.044 1.755c-1.3 2.134-.344 5.3.924 7.038.616.86 1.359 1.807 2.337 1.773.924-.034 1.287-.568 2.41-.568s1.449.568 2.427.551c1.015-.017 1.649-.86 2.265-1.721A7.463 7.463 0 0 0 46 10.278a3.153 3.153 0 0 1-1.975-2.839 3.178 3.178 0 0 1 1.595-2.661 3.536 3.536 0 0 0-2.7-1.4M5.308 1a4.324 4.324 0 0 1 4.66 4.391C9.967 8 8.015 9.8 5.239 9.8H2.2v4.567H0V1z"/>
        <path data-name="Path" d="M0 5.308h2.521c1.913 0 3-.973 3-2.659S4.434 0 2.531 0H0z" transform="translate(2.198 2.751)" style="fill:#eae4de"/>
        <path data-name="Path" d="M10.542 11.598c0-1.705 1.383-2.752 3.836-2.881l2.825-.157v-.75c0-1.084-.775-1.732-2.07-1.732a1.967 1.967 0 0 0-2.177 1.425h-2c.116-1.757 1.705-3.057 4.256-3.057 2.5 0 4.1 1.251 4.1 3.205v6.717h-2.03v-1.6h-.049a3.731 3.731 0 0 1-3.257 1.769c-2.021-.002-3.434-1.191-3.434-2.939z"/>
        <path data-name="Path" d="M4.523.769V0L1.982.148C.716.232 0 .76 0 1.593 0 2.446.746 3 1.884 3A2.423 2.423 0 0 0 4.523.769z" transform="translate(12.681 9.949)" style="fill:#eae4de"/>
        <path data-name="Path" d="M21.229 17.953v-1.621a4.149 4.149 0 0 0 .687.037 1.7 1.7 0 0 0 1.834-1.39c0-.019.187-.593.187-.6l-3.728-9.757h2.3l2.61 7.93h.039l2.605-7.93H30l-3.866 10.255c-.883 2.363-1.9 3.122-4.042 3.122-.177 0-.707-.019-.863-.046z"/>
    </g>
</svg>
