<svg xmlns="http://www.w3.org/2000/svg" width="50" height="50" viewBox="0 0 50 50">
    <g data-name="Group 30">
        <path data-name="Oval Copy 2" d="M25 0A25 25 0 1 1 0 25 25 25 0 0 1 25 0z" style="fill:#997d64"/>
        <g data-name="Group 28">
            <path d="M30.465 4.066 7.546.028a1.876 1.876 0 0 0-2.154 1.5L3.915 9.895H1.806A1.8 1.8 0 0 0 0 11.679v12.537A1.8 1.8 0 0 0 1.806 26h23.378a1.8 1.8 0 0 0 1.806-1.784v-4.408a2.668 2.668 0 0 0 1.935-.109 1.88 1.88 0 0 0 .891-1.275L31.972 6.21a1.854 1.854 0 0 0-1.507-2.143z" transform="translate(9 12)" style="stroke-width:.4px;stroke:#4d321e;stroke-miterlimit:10;fill:#4d321e"/>
            <path data-name="Path" d="M.357.686a.836.836 0 0 1 .956-.674L24.232 4.05a.832.832 0 0 1 .671.964l-.356 2.016L0 2.706z" transform="translate(15.052 13.02)" style="stroke-width:.4px;stroke:#4d321e;stroke-miterlimit:10;fill:#997d64"/>
            <path data-name="Path" d="M24.926 13.3a.77.77 0 0 1-.774.765H.774A.77.77 0 0 1 0 13.3V.765A.77.77 0 0 1 .774 0h23.378a.77.77 0 0 1 .774.765z" transform="translate(10.032 22.915)" style="stroke-width:.4px;stroke:#4d321e;stroke-miterlimit:10;fill:#997d64"/>
            <path data-name="Path" d="M23.836 13.518c-.161.907-1.18.634-1.809.523V6.949a1.8 1.8 0 0 0-1.806-1.784H0L.911 0l1.5.263 23.048 4.062z" transform="translate(13.963 16.73)" style="stroke-width:.4px;stroke:#4d321e;stroke-miterlimit:10;fill:#997d64"/>
            <path data-name="Path" d="M3.484 1H.516A.508.508 0 0 1 0 .5.508.508 0 0 1 .516 0h2.968A.508.508 0 0 1 4 .5a.508.508 0 0 1-.516.5z" transform="translate(18 34)" style="stroke-width:.4px;stroke:#4d321e;stroke-miterlimit:10;fill:#4d321e"/>
            <path data-name="Path" d="M3.484 1H.516A.508.508 0 0 1 0 .5.508.508 0 0 1 .516 0h2.968A.508.508 0 0 1 4 .5a.508.508 0 0 1-.516.5z" transform="translate(12 34)" style="stroke-width:.4px;stroke:#4d321e;stroke-miterlimit:10;fill:#4d321e"/>
            <path data-name="Path" d="M3.484 1H.516A.508.508 0 0 1 0 .5.508.508 0 0 1 .516 0h2.968A.508.508 0 0 1 4 .5a.508.508 0 0 1-.516.5z" transform="translate(23 34)" style="stroke-width:.4px;stroke:#4d321e;stroke-miterlimit:10;fill:#4d321e"/>
            <path data-name="Path" d="M3.484 1H.516A.508.508 0 0 1 0 .5.508.508 0 0 1 .516 0h2.968A.508.508 0 0 1 4 .5a.508.508 0 0 1-.516.5z" transform="translate(29 34)" style="stroke-width:.4px;stroke:#4d321e;stroke-miterlimit:10;fill:#4d321e"/>
            <path d="M1.225 4A1.25 1.25 0 0 1 0 2.73V1.27A1.25 1.25 0 0 1 1.225 0h3.55A1.25 1.25 0 0 1 6 1.27v1.46A1.25 1.25 0 0 1 4.774 4z" transform="translate(12 28)" style="stroke:#4d321e;stroke-miterlimit:10;fill:#997d64"/>
        </g>
    </g>
</svg>
