<svg xmlns="http://www.w3.org/2000/svg" width="50" height="50" viewBox="0 0 50 50">
    <g data-name="Group 29" transform="translate(-170 -111)">
        <circle data-name="Oval Copy" cx="25" cy="25" r="25" transform="translate(170 111)" style="fill:#997d64"/>
        <g data-name="Group 27">
            <circle cx="1.016" cy="1.016" r="1.016" transform="translate(200.586 132.648)" style="fill:#4d321e"/>
            <path d="M21.938 2.031h-1.32V1.016a1.016 1.016 0 0 0-2.031 0v1.015h-4.622V1.016a1.016 1.016 0 0 0-2.031 0v1.015H7.363V1.016a1.016 1.016 0 0 0-2.031 0v1.015H4.063A4.067 4.067 0 0 0 0 6.094v15.844A4.067 4.067 0 0 0 4.063 26h7.77a1.016 1.016 0 0 0 0-2.031h-7.77a2.034 2.034 0 0 1-2.031-2.031V6.094a2.034 2.034 0 0 1 2.031-2.031h1.27v1.015a1.016 1.016 0 0 0 2.031 0V4.063h4.57v1.015a1.016 1.016 0 0 0 2.031 0V4.063h4.621v1.015a1.016 1.016 0 0 0 2.031 0V4.063h1.32a2.034 2.034 0 0 1 2.031 2.031v5.789a1.016 1.016 0 0 0 2.031 0V6.094a4.067 4.067 0 0 0-4.061-4.063z" transform="translate(182 123)" style="stroke-width:.2px;stroke:#4d321e;stroke-miterlimit:10;fill:#4d321e"/>
            <path d="M0 6.144a6.145 6.145 0 1 1 6.144 6.146A6.152 6.152 0 0 1 0 6.144z" transform="translate(195.711 136.711)" style="fill:none;stroke-width:2px;stroke:#4d321e;stroke-miterlimit:10"/>
            <path data-name="Path" d="M2.488 2.082h-.457V1.016a1.016 1.016 0 0 0-2.031 0V3.1a1.016 1.016 0 0 0 1.016 1.013h1.472a1.016 1.016 0 0 0 0-2.031z" transform="translate(200.84 139.758)" style="stroke-width:.2px;stroke:#4d321e;stroke-miterlimit:10;fill:#4d321e"/>
            <circle data-name="Oval" cx="1.016" cy="1.016" r="1.016" transform="translate(196.168 132.648)" style="fill:#4d321e"/>
            <circle data-name="Oval" cx="1.016" cy="1.016" r="1.016" transform="translate(191.75 137.066)" style="fill:#4d321e"/>
            <circle data-name="Oval" cx="1.016" cy="1.016" r="1.016" transform="translate(187.332 132.648)" style="fill:#4d321e"/>
            <circle data-name="Oval" cx="1.016" cy="1.016" r="1.016" transform="translate(187.332 137.066)" style="fill:#4d321e"/>
            <circle data-name="Oval" cx="1.016" cy="1.016" r="1.016" transform="translate(187.332 141.484)" style="fill:#4d321e"/>
            <circle data-name="Oval" cx="1.016" cy="1.016" r="1.016" transform="translate(191.75 141.484)" style="fill:#4d321e"/>
            <circle data-name="Oval" cx="1.016" cy="1.016" r="1.016" transform="translate(191.75 132.648)" style="fill:#4d321e"/>
        </g>
    </g>
</svg>
