<svg xmlns="http://www.w3.org/2000/svg" width="24" height="24" viewBox="0 0 24 24">
    <path data-name="Path" d="M14.571 6.571H9.714a.286.286 0 0 1-.286-.286V1.429a1.429 1.429 0 1 0-2.857 0v4.857a.286.286 0 0 1-.286.286H1.429a1.429 1.429 0 1 0 0 2.857h4.857a.286.286 0 0 1 .286.286v4.857a1.429 1.429 0 1 0 2.857 0V9.714a.286.286 0 0 1 .286-.286h4.857a1.429 1.429 0 1 0 0-2.857z" style="fill:none" transform="translate(4 4)"/>
    <path data-name="Path" d="M14.571 6.571H9.714a.286.286 0 0 1-.286-.286V1.429a1.429 1.429 0 1 0-2.857 0v4.857a.286.286 0 0 1-.286.286H1.429a1.429 1.429 0 1 0 0 2.857h4.857a.286.286 0 0 1 .286.286v4.857a1.429 1.429 0 1 0 2.857 0V9.714a.286.286 0 0 1 .286-.286h4.857a1.429 1.429 0 1 0 0-2.857z" style="fill:none" transform="translate(4 4)"/>
    <path data-name="Path" d="M14.571 6.571H9.714a.286.286 0 0 1-.286-.286V1.429a1.429 1.429 0 1 0-2.857 0v4.857a.286.286 0 0 1-.286.286H1.429a1.429 1.429 0 1 0 0 2.857h4.857a.286.286 0 0 1 .286.286v4.857a1.429 1.429 0 1 0 2.857 0V9.714a.286.286 0 0 1 .286-.286h4.857a1.429 1.429 0 1 0 0-2.857z" style="fill:none" transform="translate(4 4)"/>
    <path data-name="Path" d="M14.571 6.571H9.714a.286.286 0 0 1-.286-.286V1.429a1.429 1.429 0 1 0-2.857 0v4.857a.286.286 0 0 1-.286.286H1.429a1.429 1.429 0 1 0 0 2.857h4.857a.286.286 0 0 1 .286.286v4.857a1.429 1.429 0 1 0 2.857 0V9.714a.286.286 0 0 1 .286-.286h4.857a1.429 1.429 0 1 0 0-2.857z" style="fill:#4d321e" transform="translate(4 4)"/>
</svg>
