<svg xmlns="http://www.w3.org/2000/svg" width="19.309" height="18" viewBox="0 0 19.309 18">
    <path data-name="🎨 Icon Сolor" d="M-18.237 18a1.1 1.1 0 0 0 .759-.293l3.643-3.395A8.89 8.89 0 0 0-8.582 16C-3.85 16 0 12.411 0 8s-3.85-8-8.582-8-8.582 3.589-8.582 8a7.574 7.574 0 0 0 1.811 4.9l-3.641 3.4a.962.962 0 0 0-.315.708.96.96 0 0 0 .315.706 1.1 1.1 0 0 0 .757.286zm9.655-16a6.237 6.237 0 0 1 6.436 6 6.237 6.237 0 0 1-6.436 6 6.237 6.237 0 0 1-6.437-6 6.237 6.237 0 0 1 6.437-6z" transform="translate(19.309)" style="fill:#d5d5d5"/>
</svg>
