<svg xmlns="http://www.w3.org/2000/svg" width="50" height="50" viewBox="0 0 50 50">
    <g data-name="Group 26" transform="translate(-299 -111)">
        <circle cx="25" cy="25" r="25" transform="translate(299 111)" style="fill:#997d64"/>
        <path d="M3.927 1.033c.42-.066 4.579-.066 5 0 2.695.49 4.5 2.486 5.361 5.931a42.619 42.619 0 0 1 1 7.758l.982-.061a44.109 44.109 0 0 0-1.03-7.936c-.951-3.8-3.073-6.1-6.139-6.66-.475-.087-4.874-.087-5.348 0A6.781 6.781 0 0 0 0 2.062l.709.682a5.827 5.827 0 0 1 3.218-1.711z" transform="translate(317.327 122.055)" style="stroke:#4d321e;stroke-miterlimit:10;stroke-width:.4px;fill:#4d321e"/>
        <path data-name="Path" d="M28.033 18.883a1.477 1.477 0 0 0-1.475 1.475v.492h.984v-.492a.492.492 0 0 1 .984 0v.275a1.615 1.615 0 0 1-.327.972.707.707 0 0 1-.079.088c-.363.332-1.049.842-1.573.525s-.693-1.657-.8-2.465c-.029-.206-.054-.4-.082-.554l-.969.166c.026.15.05.327.076.522a8.012 8.012 0 0 0 .569 2.337l-3.182-.187a3.162 3.162 0 0 1-2.973-3.153v-4.929c1.374-1.628 2.012-3.993 2.567-6.07.2-.756.393-1.472.608-2.119a.489.489 0 0 0-.069-.443C21.886 4.773 18.343 0 15.892 0h-.081a1.768 1.768 0 0 0-1.479.933C12.966 3.21 7.275 5.177 7.218 5.2a.492.492 0 0 0-.314.6c.128.444.252.915.38 1.4.6 2.282 1.343 5.085 3.043 6.891v4.793a3.162 3.162 0 0 1-2.974 3.152l-3.182.187a8.012 8.012 0 0 0 .569-2.337c.027-.194.051-.372.076-.521.344-2 .608-4.027.784-6.026.1-1.124.169-2.268.236-3.375.125-2.059.255-4.188.577-6.243l-.973-.152c-.33 2.1-.461 4.254-.587 6.335-.067 1.1-.136 2.238-.234 3.349a72.832 72.832 0 0 1-.773 5.946c-.028.159-.053.348-.082.554-.11.807-.294 2.157-.8 2.465-.3.179-.681.116-1.142-.187a1.689 1.689 0 0 1-.607-.754l-.074-.172a1.891 1.891 0 0 1-.153-.748.492.492 0 0 1 .984 0v.492h.984v-.492a1.475 1.475 0 0 0-2.951 0A2.846 2.846 0 0 0 .236 21.5l.074.172a2.656 2.656 0 0 0 .972 1.185 2.464 2.464 0 0 0 1.206.441v.012H2.601a1.658 1.658 0 0 0 .214-.016l4.6-.27a4.145 4.145 0 0 0 3.9-4.133v-3.955a5.923 5.923 0 0 0 3.443 1 5.611 5.611 0 0 0 3.442-1.054v4a4.146 4.146 0 0 0 3.9 4.133l4.566.268a1.711 1.711 0 0 0 .246.019H27.023V23.3a2.982 2.982 0 0 0 1.762-.879 1.674 1.674 0 0 0 .2-.216 2.609 2.609 0 0 0 .53-1.57v-.275a1.477 1.477 0 0 0-1.475-1.475z" transform="translate(309 127.693)" style="stroke:#4d321e;stroke-miterlimit:10;stroke-width:.4px;fill:#4d321e"/>
        <path data-name="Path" d="M6.78 13.972c-4.406 0-5.528-4.254-6.519-8.007C.173 5.63.087 5.3 0 4.987 1.429 4.456 5.878 2.662 7.2.458A.784.784 0 0 1 7.881 0c1.419-.052 4.042 2.78 5.488 4.718a43.323 43.323 0 0 0-.545 1.931c-.962 3.6-1.957 7.322-6.044 7.322z" transform="translate(316.974 128.676)" style="stroke:#4d321e;stroke-miterlimit:10;stroke-width:.4px;fill:#997d64"/>
        <path d="M4.079 8.7 3.5 8.128a2.448 2.448 0 0 1-.684-2.1 2.413 2.413 0 0 1-.359.034 2.451 2.451 0 0 1-1.736-.714l-.577-.576a.493.493 0 0 1 0-.7L.721 3.5a2.451 2.451 0 0 1 2.1-.684A2.445 2.445 0 0 1 3.5.72l.579-.576a.492.492 0 0 1 .695 0l.577.576a2.451 2.451 0 0 1 .685 2.1 2.452 2.452 0 0 1 2.1.684l.576.576a.491.491 0 0 1 0 .7l-.576.576a2.454 2.454 0 0 1-1.739.718 2.526 2.526 0 0 1-.358-.034 2.449 2.449 0 0 1-.685 2.1l-.58.56a.491.491 0 0 1-.695 0z" transform="translate(309 122)" style="stroke:#4d321e;stroke-miterlimit:10;stroke-width:.4px;fill:#4d321e"/>
        <path data-name="Shape" d="M4.079 8.7 3.5 8.128a2.448 2.448 0 0 1-.684-2.1 2.413 2.413 0 0 1-.359.034 2.451 2.451 0 0 1-1.736-.714l-.577-.576a.493.493 0 0 1 0-.7L.721 3.5a2.451 2.451 0 0 1 2.1-.684A2.445 2.445 0 0 1 3.5.72l.579-.576a.492.492 0 0 1 .695 0l.577.576a2.451 2.451 0 0 1 .685 2.1 2.452 2.452 0 0 1 2.1.684l.576.576a.491.491 0 0 1 0 .7l-.576.576a2.454 2.454 0 0 1-1.739.718 2.526 2.526 0 0 1-.358-.034 2.449 2.449 0 0 1-.685 2.1l-.58.56a.491.491 0 0 1-.695 0z" transform="translate(330.147 136.746)" style="stroke:#4d321e;stroke-miterlimit:10;stroke-width:.4px;fill:#4d321e"/>
        <path data-name="Path" d="M0 0h.984v.983H0z" transform="translate(333.59 122)" style="stroke:#4d321e;stroke-miterlimit:10;stroke-width:.4px;fill:#4d321e"/>
        <path data-name="Path" d="M0 0h.984v.983H0z" transform="translate(334.574 122.983)" style="stroke:#4d321e;stroke-miterlimit:10;stroke-width:.4px;fill:#4d321e"/>
        <path data-name="Path" d="M0 0h.984v.983H0z" transform="translate(332.606 122.983)" style="stroke:#4d321e;stroke-miterlimit:10;stroke-width:.4px;fill:#4d321e"/>
        <path data-name="Path" d="M0 0h.984v.983H0z" transform="translate(333.59 123.966)" style="stroke:#4d321e;stroke-miterlimit:10;stroke-width:.4px;fill:#4d321e"/>
        <path data-name="Path" d="M0 0h.984v.983H0z" transform="translate(309.984 133.306)" style="stroke:#4d321e;stroke-miterlimit:10;stroke-width:.4px;fill:#4d321e"/>
        <path data-name="Path" d="M0 0h.984v.983H0z" transform="translate(310.967 134.289)" style="stroke:#4d321e;stroke-miterlimit:10;stroke-width:.4px;fill:#4d321e"/>
        <path data-name="Path" d="M0 0h.984v.983H0z" transform="translate(309 134.289)" style="stroke:#4d321e;stroke-miterlimit:10;stroke-width:.4px;fill:#4d321e"/>
        <path data-name="Path" d="M0 0h.984v.983H0z" transform="translate(309.984 135.271)" style="stroke:#4d321e;stroke-miterlimit:10;stroke-width:.4px;fill:#4d321e"/>
        <path data-name="Path" d="M0 0h.984v.983H0z" transform="translate(336.541 126.915)" style="stroke:#4d321e;stroke-miterlimit:10;stroke-width:.4px;fill:#4d321e"/>
        <path data-name="Path" d="M0 0h.984v.983H0z" transform="translate(337.524 127.898)" style="stroke:#4d321e;stroke-miterlimit:10;stroke-width:.4px;fill:#4d321e"/>
        <path data-name="Path" d="M0 0h.984v.983H0z" transform="translate(335.557 127.898)" style="stroke:#4d321e;stroke-miterlimit:10;stroke-width:.4px;fill:#4d321e"/>
        <path data-name="Path" d="M0 0h.984v.983H0z" transform="translate(336.541 128.882)" style="stroke:#4d321e;stroke-miterlimit:10;stroke-width:.4px;fill:#4d321e"/>
    </g>
</svg>
