<svg xmlns="http://www.w3.org/2000/svg" width="45" height="45" viewBox="0 0 45 45">
    <circle cx="22.5" cy="22.5" r="22.5" style="fill:#03a9f4"/>
    <path d="M29 2.843a12.2 12.2 0 0 1-3.426.957A6 6 0 0 0 28.19.452a11.752 11.752 0 0 1-3.771 1.467 5.872 5.872 0 0 0-6.528-1.5 6.053 6.053 0 0 0-3.76 5.635 6.37 6.37 0 0 0 .138 1.38 16.742 16.742 0 0 1-12.26-6.328 6.126 6.126 0 0 0 1.83 8.1 5.789 5.789 0 0 1-2.687-.747v.066a6.058 6.058 0 0 0 4.764 5.945 5.831 5.831 0 0 1-1.559.2 5.212 5.212 0 0 1-1.128-.1 6.022 6.022 0 0 0 5.56 4.218 11.823 11.823 0 0 1-7.366 2.583A10.55 10.55 0 0 1 0 21.282 16.515 16.515 0 0 0 9.133 24c10.945 0 16.929-9.23 16.929-17.23 0-.267 0-.525-.021-.783A11.955 11.955 0 0 0 29 2.843z" transform="translate(8 11)" style="fill:#fff"/>
</svg>
