<svg xmlns="http://www.w3.org/2000/svg" width="76" height="71" viewBox="0 0 76 71">
    <g data-name="Group 31">
        <path d="M64.125 0h-52.25A11.917 11.917 0 0 0 0 11.933V53.7a11.917 11.917 0 0 0 11.875 11.93H52.4a2.983 2.983 0 0 0 0-5.966H41.464l-6.826-8.9 21.631-27.645L70.83 39.291a2.966 2.966 0 0 0 5.17-2V11.933A11.917 11.917 0 0 0 64.125 0z" style="fill:#4d321e"/>
        <path data-name="Path" d="M64.125 23.58 52.374 10.528a2.959 2.959 0 0 0-4.535.158L24.961 39.925 17.195 29.8a2.964 2.964 0 0 0-2.351-1.162 2.964 2.964 0 0 0-2.353 1.162l-6.534 8.538a2.993 2.993 0 0 0 .543 4.183 2.96 2.96 0 0 0 4.164-.545l4.182-5.464L28.03 53.7H5.938A5.959 5.959 0 0 1 0 47.731V5.966A5.959 5.959 0 0 1 5.938 0h52.25a5.959 5.959 0 0 1 5.938 5.966z" transform="translate(5.938 5.966)" style="fill:#eae4de"/>
        <path data-name="Path" d="M8.906 0a8.95 8.95 0 1 0 8.906 8.95A8.938 8.938 0 0 0 8.906 0z" transform="translate(11.875 10.739)" style="fill:#4d321e"/>
        <path data-name="Path" d="M2.969 5.966a2.983 2.983 0 1 1 2.969-2.983 2.98 2.98 0 0 1-2.969 2.983z" transform="translate(17.813 16.706)" style="fill:#eae4de"/>
        <path data-name="Path" d="m17.141 2.229-.026-.029a7.375 7.375 0 0 0-10.5-.013L.884 7.87a2.993 2.993 0 0 0-.028 4.218 2.958 2.958 0 0 0 4.2.029l3.837-3.8v16.742a2.969 2.969 0 1 0 5.938 0V8.406l3.669 3.812a2.959 2.959 0 0 0 4.2.069 2.993 2.993 0 0 0 .068-4.218z" transform="translate(52.398 42.958)" style="fill:#4d321e"/>
    </g>
</svg>
