<svg xmlns="http://www.w3.org/2000/svg" width="50" height="15" viewBox="0 0 50 15">
    <g data-name="Group 8">
        <path d="M0 14 2.732 0H7L4.354 14z" transform="translate(18 1)" style="fill:#fff"/>
        <path data-name="Path" d="M12 .632A9.89 9.89 0 0 0 8.392 0C4.471 0 1.647 1.974 1.647 4.816c0 2.132 1.961 3.237 3.529 3.947s2.039 1.184 2.039 1.816C7.216 11.526 5.961 12 4.863 12a8.478 8.478 0 0 1-3.763-.789l-.549-.237L0 14.211A12.643 12.643 0 0 0 4.471 15c4.157 0 6.9-1.974 6.9-4.974 0-1.658-1.02-2.921-3.373-3.947-1.41-.711-2.273-1.105-2.273-1.816C5.725 3.632 6.431 3 8 3a7.153 7.153 0 0 1 2.98.553l.392.158L12 .632z" transform="translate(25)" style="fill:#fff"/>
        <path data-name="Path" d="M7.769 0c-.923 0-1.615.078-2 1.011L0 14h4.154l.769-2.333h4.923L10.308 14H14L10.769 0h-3z" transform="translate(36 1)" style="fill:#fff"/>
        <path data-name="Path" d="M0 5.522C.231 4.822 1.538 1.4 1.538 1.4s.308-.856.539-1.4l.231 1.322s.769 3.5.923 4.278H0z" transform="translate(42 4.811)" style="fill:#4d321e"/>
        <path data-name="Path" d="M5.833 9.722 5.444 7.7A11.275 11.275 0 0 0 0 1.556L3.5 14h4.2L14 0H9.8z" transform="translate(5 1)" style="fill:#fff"/>
        <path data-name="Path" d="m0 0 .739.16C5.993 1.36 9.6 4.4 11 8L9.522 1.2C9.276.24 8.537 0 7.634 0H0z" style="fill:#fff"/>
        <path data-name="Path" d="M4.062 3.467.637 0 0 3.467z" transform="translate(18.222 11.139)" style="fill:#fff"/>
    </g>
</svg>
