<svg xmlns="http://www.w3.org/2000/svg" width="45" height="45" viewBox="0 0 45 45">
    <g data-name="Group 24" transform="translate(-274 -754)">
        <circle cx="22.5" cy="22.5" r="22.5" transform="translate(274 754)" style="fill:#29a71a"/>
        <g data-name="Group 23">
            <path d="M23.957 4.118A14.087 14.087 0 0 0 5.807 2.63a13.826 13.826 0 0 0-4.284 17.562L.037 27.349a.526.526 0 0 0 .085.415.544.544 0 0 0 .575.222l7.07-1.663a14.071 14.071 0 0 0 17.576-4.3 13.809 13.809 0 0 0-1.386-17.905z" transform="translate(283 763)" style="fill:none;stroke:#fff;stroke-width:2px"/>
            <path data-name="Path" d="M14.422 11.21A4.543 4.543 0 0 1 12 13.308c-1.848.443-4.683.015-8.212-3.249l-.044-.038C.638 7.167-.168 4.792.027 2.908A4.5 4.5 0 0 1 1.79.24 1.012 1.012 0 0 1 3.369.6l1.142 2.545a.989.989 0 0 1-.126 1.018l-.577.743a.979.979 0 0 0-.09 1.1 10.733 10.733 0 0 0 1.958 2.157 11.428 11.428 0 0 0 2.712 1.927.986.986 0 0 0 1.075-.224l.67-.67a1.032 1.032 0 0 1 1-.255l2.713.764a1.023 1.023 0 0 1 .659.613 1.011 1.011 0 0 1-.084.892z" transform="translate(289.946 770.189)" style="fill:#fff"/>
        </g>
    </g>
</svg>
