<svg xmlns="http://www.w3.org/2000/svg" width="16" height="16" viewBox="0 0 16 16">
    <g data-name="Group 6">
        <path d="M8 0a8 8 0 0 0-6.477 12.689l-1 2.972 3.077-.983A8 8 0 1 0 8 0z" style="fill:#fff"/>
        <path data-name="Path" d="M9.305 7.638a2.257 2.257 0 0 1-1.57 1.129c-.418.089-.964.16-2.8-.6A10.022 10.022 0 0 1 .95 4.647 4.569 4.569 0 0 1 0 2.234 2.554 2.554 0 0 1 .818.287 1.162 1.162 0 0 1 1.636 0c.1 0 .188 0 .268.009.235.01.353.024.508.4.193.465.663 1.613.719 1.731a.476.476 0 0 1 .034.433 1.382 1.382 0 0 1-.259.367c-.118.136-.23.24-.348.386-.108.127-.23.263-.094.5a7.1 7.1 0 0 0 1.3 1.613 5.882 5.882 0 0 0 1.874 1.15A.506.506 0 0 0 6.2 6.5a9.679 9.679 0 0 0 .625-.828A.446.446 0 0 1 7.4 5.5c.216.075 1.359.64 1.594.757s.39.174.447.273a1.992 1.992 0 0 1-.136 1.108z" transform="translate(3.352 3.659)" style="fill:#4d321e"/>
    </g>
</svg>
